<svg xmlns="http://www.w3.org/2000/svg" width="221.824" height="55.929" viewBox="0 0 221.824 55.929"><defs><style>.cls-1{fill:#0064aa;}</style></defs><g id="レイヤー_2" data-name="レイヤー 2"><g id="レイヤー_3" data-name="レイヤー 3"><path class="cls-1" d="M4.078,29.039V4.594H0V.516H13.2V4.594H9V29.039h3.75v4.078H0V29.039ZM9.164,15.9,19.617,4.594H15.891V.516H28.664V4.594H25.2L15.158,15.9,25.477,29.039h3.492v4.078H15.727V29.039h3.515Z"/><path class="cls-1" d="M36.139,29.156V14.391H32.623V10.43h7.969V29.156h3.515v3.961H32.623V29.156ZM35.506,2.719A2.623,2.623,0,0,1,36.268.844,2.555,2.555,0,0,1,38.2.047,2.635,2.635,0,0,1,40.1.82a2.545,2.545,0,0,1,.8,1.9,2.581,2.581,0,0,1-.8,1.91,2.615,2.615,0,0,1-1.9.785,2.581,2.581,0,0,1-1.91-.8A2.612,2.612,0,0,1,35.506,2.719Z"/><path class="cls-1" d="M49.214,33.117V29.156h4.031V4.477H49.214V.516H57.6V13.641a10.949,10.949,0,0,1,16.09-.621,11.576,11.576,0,0,1,3.176,8.5,12.284,12.284,0,0,1-3.105,8.519,10.215,10.215,0,0,1-7.957,3.457,10.583,10.583,0,0,1-4.969-1.172,8.714,8.714,0,0,1-3.235-2.6v3.4Zm8.531-11.3a7.405,7.405,0,0,0,2.168,5.614,7.027,7.027,0,0,0,5,2.074,6.941,6.941,0,0,0,5.133-2.2A8.083,8.083,0,0,0,72.206,21.4a7.207,7.207,0,0,0-12.234-5.5A7.644,7.644,0,0,0,57.745,21.82Z"/><path class="cls-1" d="M80.784,21.773a11.472,11.472,0,0,1,3.469-8.613A11.7,11.7,0,0,1,92.714,9.8a11.834,11.834,0,0,1,8.414,3.316,11.359,11.359,0,0,1,3.516,8.66,11.414,11.414,0,0,1-3.5,8.672,11.8,11.8,0,0,1-8.426,3.328,11.64,11.64,0,0,1-11.93-12Zm4.711-.011a7.549,7.549,0,0,0,2.1,5.506,7.183,7.183,0,0,0,10.265-.024,7.616,7.616,0,0,0,2.075-5.482,7.536,7.536,0,0,0-2.11-5.494,6.879,6.879,0,0,0-5.109-2.159,6.752,6.752,0,0,0-5.18,2.205A7.728,7.728,0,0,0,85.5,21.762Z"/><path class="cls-1" d="M109.869,19.641h14.062v4.453H109.869Z"/><path class="cls-1" d="M132.39,29.039V4.594h-4.476V.516h13.242a26.775,26.775,0,0,1,6.586.644,7.342,7.342,0,0,1,4.031,2.719,8.233,8.233,0,0,1,1.594,5.167q0,6.468-6.72,8.132l5.759,11.861h3.984v4.078h-7.061l-7.423-15.234h-4.594V29.039h4.172v4.078h-13.57V29.039Zm4.922-15.234h3.844a16.87,16.87,0,0,0,4.113-.364,3.972,3.972,0,0,0,2.168-1.476,4.825,4.825,0,0,0,.844-2.988,4.26,4.26,0,0,0-.856-2.7,3.683,3.683,0,0,0-2.109-1.394,18.256,18.256,0,0,0-3.832-.293h-4.172Z"/><path class="cls-1" d="M163.279,29.039V4.594h-4.1V.516h11.649a30.2,30.2,0,0,1,7.687.726,7.652,7.652,0,0,1,4.278,3.293,10.617,10.617,0,0,1,1.722,6.059,10.8,10.8,0,0,1-1.137,5,8.094,8.094,0,0,1-2.812,3.269,10.306,10.306,0,0,1-3.773,1.418,40.487,40.487,0,0,1-6.34.363H168.2v8.391h4.218v4.078H159.177V29.039ZM168.2,16.711h2.812q4.8,0,6.656-1.371t1.852-4.84a6.377,6.377,0,0,0-.984-3.656A4.307,4.307,0,0,0,176.1,4.992a20.6,20.6,0,0,0-4.851-.4H168.2Z"/><path class="cls-1" d="M217.582,19.852l4.242,2.367a14.234,14.234,0,0,1-5.778,8.426,17.219,17.219,0,0,1-10,2.988q-7.406,0-11.883-4.805a16.772,16.772,0,0,1-4.476-11.883q0-7.758,4.5-12.351A15.7,15.7,0,0,1,205.933,0a16.66,16.66,0,0,1,10.758,3.492V.516h4.219V10.992h-4.219a10.555,10.555,0,0,0-4.336-4.933,11.86,11.86,0,0,0-6.164-1.747,10.234,10.234,0,0,0-8,3.516,12.865,12.865,0,0,0-3.129,8.883,12.458,12.458,0,0,0,3.352,9,10.646,10.646,0,0,0,7.945,3.492,10.857,10.857,0,0,0,6.867-2.426A12.927,12.927,0,0,0,217.582,19.852Z"/><path class="cls-1" d="M3.669,49.374l-.678.8-.007,2.665-1.845-.005.022-8.672,1.846,0L3,48.046,6.075,44.18l2.275.006L4.895,48.247l3.667,4.611-2.275-.006Z"/><path class="cls-1" d="M9.219,44.669a1,1,0,0,1,.991-.985.988.988,0,0,1-.005,1.976A1,1,0,0,1,9.219,44.669Zm.164,1.912,1.652,0-.017,6.28L9.367,52.86Z"/><path class="cls-1" d="M13.2,44.2l1.652,0-.009,3.2a2.419,2.419,0,0,1,1.94-.957c1.6,0,2.779,1.256,2.774,3.309-.006,2.094-1.2,3.287-2.791,3.283a2.438,2.438,0,0,1-1.934-.968l0,.807-1.651-.005Zm3.05,7.366a1.843,1.843,0,0,0,.009-3.653,1.82,1.82,0,0,0-1.419.724l0,2.223A1.835,1.835,0,0,0,16.248,51.565Z"/><path class="cls-1" d="M20.659,49.744a3.181,3.181,0,0,1,3.323-3.281,3.3,3.3,0,1,1-.017,6.591A3.182,3.182,0,0,1,20.659,49.744Zm4.927.012a1.62,1.62,0,1,0-1.617,1.829A1.657,1.657,0,0,0,25.586,49.756Z"/><path class="cls-1" d="M35.35,49.821l-1.352,0-.009,3.107-1.846-.005.023-8.671,4.056.011a2.7,2.7,0,0,1,2.905,2.8,2.487,2.487,0,0,1-1.905,2.568l1.942,3.308-2.12-.006Zm.595-3.977-1.937-.005L34,48.231l1.937,0a1.2,1.2,0,1,0,.007-2.392Z"/><path class="cls-1" d="M40.068,49.794a3.322,3.322,0,1,1,3.307,3.311A3.18,3.18,0,0,1,40.068,49.794ZM45,49.807a1.62,1.62,0,1,0-1.618,1.829A1.658,1.658,0,0,0,45,49.807Z"/><path class="cls-1" d="M48.207,44.29l1.651,0-.008,3.2a2.417,2.417,0,0,1,1.939-.956c1.6,0,2.779,1.255,2.774,3.308-.005,2.094-1.205,3.287-2.791,3.283a2.438,2.438,0,0,1-1.934-.968l0,.806-1.651,0Zm3.049,7.366A1.843,1.843,0,0,0,51.266,48a1.82,1.82,0,0,0-1.419.724l-.006,2.223A1.835,1.835,0,0,0,51.256,51.656Z"/><path class="cls-1" d="M55.668,49.834a3.322,3.322,0,1,1,3.306,3.312A3.18,3.18,0,0,1,55.668,49.834Zm4.927.013a1.62,1.62,0,1,0-1.617,1.829A1.656,1.656,0,0,0,60.6,49.847Z"/><path class="cls-1" d="M63.854,51.442l.008-3.276-1.04,0,0-1.443,1.04,0,.005-1.716,1.664,0,0,1.716,1.274,0,0,1.443-1.274,0L65.519,51c0,.39.206.69.57.691a.911.911,0,0,0,.573-.181l.348,1.249a2.043,2.043,0,0,1-1.38.4A1.569,1.569,0,0,1,63.854,51.442Z"/><path class="cls-1" d="M71.828,44.351l4.056.011a2.785,2.785,0,1,1-.014,5.564l-2.21-.006-.008,3.107-1.846-.005Zm3.8,1.6-1.963-.005-.006,2.392,1.963,0a1.2,1.2,0,1,0,.006-2.392Z"/><path class="cls-1" d="M80.155,46.765l1.651,0,0,.858a2.684,2.684,0,0,1,2-1l0,1.613a2.075,2.075,0,0,0-.455-.054A2.106,2.106,0,0,0,81.8,48.9l-.01,4.147-1.652,0Z"/><path class="cls-1" d="M85.2,49.911a3.322,3.322,0,1,1,3.306,3.311A3.179,3.179,0,0,1,85.2,49.911Zm4.927.013a1.62,1.62,0,1,0-1.617,1.829A1.658,1.658,0,0,0,90.131,49.924Z"/><path class="cls-1" d="M93.93,53.5a2.494,2.494,0,0,0,1.961.785A1.534,1.534,0,0,0,97.624,52.7l0-.637a2.445,2.445,0,0,1-1.94.982c-1.573,0-2.766-1.111-2.761-3.2.006-2.053,1.192-3.194,2.778-3.191a2.416,2.416,0,0,1,1.934.968l0-.806,1.664,0-.015,5.85c-.007,2.392-1.854,2.972-3.4,2.968a3.806,3.806,0,0,1-2.7-.943Zm3.7-4.657a1.788,1.788,0,0,0-1.415-.719,1.735,1.735,0,0,0-.009,3.458,1.828,1.828,0,0,0,1.419-.711Z"/><path class="cls-1" d="M101.461,46.82l1.651.005,0,.858a2.684,2.684,0,0,1,2-1l0,1.612a2.03,2.03,0,0,0-2,.658L103.1,53.1l-1.652,0Z"/><path class="cls-1" d="M110.677,52.474a2.605,2.605,0,0,1-1.992.8,2.093,2.093,0,0,1-2.179-2.086,1.989,1.989,0,0,1,2.19-2,2.54,2.54,0,0,1,1.987.772l0-.871c0-.636-.544-1.054-1.376-1.056a2.643,2.643,0,0,0-1.835.736l-.621-1.106a4.117,4.117,0,0,1,2.746-.981c1.429,0,2.741.579,2.736,2.386l-.01,4.056-1.651,0Zm0-1.639a1.657,1.657,0,0,0-1.325-.549c-.65,0-1.184.335-1.186.946,0,.585.531.925,1.181.926a1.653,1.653,0,0,0,1.328-.542Z"/><path class="cls-1" d="M122.281,49.188c0-.584-.257-1-.933-1a1.667,1.667,0,0,0-1.3.725l-.011,4.238-1.664,0,.01-3.966c0-.585-.257-1-.933-1a1.683,1.683,0,0,0-1.3.738l-.011,4.225-1.652,0,.017-6.279,1.651,0,0,.82a2.745,2.745,0,0,1,2.056-.97,1.66,1.66,0,0,1,1.739,1.148,2.668,2.668,0,0,1,2.161-1.138,1.677,1.677,0,0,1,1.842,1.9l-.012,4.537-1.664,0Z"/><path class="cls-1" d="M133.877,49.219c0-.585-.257-1-.933-1a1.668,1.668,0,0,0-1.3.725l-.012,4.238-1.664,0,.011-3.966c0-.584-.257-1-.934-1a1.685,1.685,0,0,0-1.3.738l-.012,4.225-1.651,0,.017-6.28,1.651.005,0,.819a2.743,2.743,0,0,1,2.056-.97,1.661,1.661,0,0,1,1.739,1.149,2.661,2.661,0,0,1,2.161-1.138,1.675,1.675,0,0,1,1.841,1.9l-.011,4.537-1.664,0Z"/><path class="cls-1" d="M137.527,45a.988.988,0,1,1,.986.991A1,1,0,0,1,137.527,45Zm.164,1.912,1.652,0-.017,6.279-1.651,0Z"/><path class="cls-1" d="M145.731,49.419a1.018,1.018,0,0,0-1.153-1.173,1.785,1.785,0,0,0-1.432.737l-.011,4.225-1.652,0,.017-6.28,1.651.005,0,.819a2.873,2.873,0,0,1,2.2-.969,1.826,1.826,0,0,1,2.036,2.007l-.012,4.433-1.651,0Z"/><path class="cls-1" d="M150.14,53.642a2.494,2.494,0,0,0,1.961.786,1.535,1.535,0,0,0,1.733-1.582l0-.637a2.446,2.446,0,0,1-1.94.983c-1.573,0-2.766-1.112-2.761-3.206.006-2.053,1.192-3.194,2.778-3.19a2.415,2.415,0,0,1,1.934.967l0-.806,1.664,0-.015,5.85c-.007,2.392-1.854,2.972-3.4,2.968a3.8,3.8,0,0,1-2.7-.943Zm3.7-4.657a1.788,1.788,0,0,0-1.415-.719,1.735,1.735,0,0,0-.009,3.458,1.828,1.828,0,0,0,1.419-.711Z"/><path class="cls-1" d="M160.617,48.924a4.389,4.389,0,0,1,4.562-4.473,4,4,0,0,1,3.687,2.129l-1.588.775a2.375,2.375,0,0,0-2.1-1.266,2.854,2.854,0,0,0-.015,5.694,2.35,2.35,0,0,0,2.11-1.256l1.584.772a4.024,4.024,0,0,1-3.7,2.122A4.389,4.389,0,0,1,160.617,48.924Z"/><path class="cls-1" d="M173.916,49.466c0-.871-.452-1.146-1.167-1.147a1.829,1.829,0,0,0-1.432.737l-.011,4.225-1.652,0,.023-8.672,1.651.005-.008,3.211a2.9,2.9,0,0,1,2.212-.969,1.808,1.808,0,0,1,2.036,1.981l-.011,4.459-1.651,0Z"/><path class="cls-1" d="M180.967,52.656a2.606,2.606,0,0,1-1.992.8,2.094,2.094,0,0,1-2.179-2.086,1.989,1.989,0,0,1,2.19-2,2.536,2.536,0,0,1,1.987.772l0-.871c0-.637-.544-1.054-1.376-1.056a2.639,2.639,0,0,0-1.835.736l-.621-1.107a4.116,4.116,0,0,1,2.746-.98c1.429,0,2.741.578,2.736,2.385l-.01,4.057-1.651-.005Zm0-1.638a1.65,1.65,0,0,0-1.325-.549c-.65,0-1.184.335-1.186.946,0,.585.531.924,1.181.926a1.652,1.652,0,0,0,1.328-.543Z"/><path class="cls-1" d="M184.536,44.644l1.651,0-.022,8.672-1.652-.005Z"/><path class="cls-1" d="M188.085,44.653l1.651.005-.022,8.671-1.652,0Z"/><path class="cls-1" d="M194.735,46.907a3.149,3.149,0,0,1,3.137,3.466v.364l-4.666-.012a1.692,1.692,0,0,0,1.8,1.461,2.572,2.572,0,0,0,1.679-.62l.725,1.068a3.915,3.915,0,0,1-2.59.865,3.3,3.3,0,1,1-.087-6.592Zm-1.553,2.7,3.094.008a1.455,1.455,0,0,0-1.544-1.4A1.508,1.508,0,0,0,193.182,49.607Z"/><path class="cls-1" d="M203.308,49.568a1.018,1.018,0,0,0-1.153-1.173,1.787,1.787,0,0,0-1.432.738l-.012,4.225-1.651,0,.017-6.28,1.651.005,0,.819a2.872,2.872,0,0,1,2.2-.97,1.826,1.826,0,0,1,2.036,2.008l-.012,4.433-1.651-.005Z"/><path class="cls-1" d="M207.717,53.792a2.494,2.494,0,0,0,1.961.785A1.534,1.534,0,0,0,211.411,53l0-.637a2.448,2.448,0,0,1-1.94.982c-1.573,0-2.766-1.112-2.761-3.2.006-2.053,1.192-3.195,2.778-3.191a2.416,2.416,0,0,1,1.934.968l0-.807,1.664,0-.015,5.85c-.007,2.393-1.854,2.973-3.4,2.969a3.806,3.806,0,0,1-2.7-.943Zm3.7-4.657a1.788,1.788,0,0,0-1.415-.719A1.735,1.735,0,0,0,210,51.874a1.834,1.834,0,0,0,1.419-.711Z"/><path class="cls-1" d="M218.1,46.968a3.148,3.148,0,0,1,3.137,3.466V50.8l-4.667-.012a1.692,1.692,0,0,0,1.8,1.461,2.572,2.572,0,0,0,1.679-.62l.725,1.068a3.917,3.917,0,0,1-2.589.865,3.3,3.3,0,1,1-.087-6.592Zm-1.554,2.7,3.094.008a1.454,1.454,0,0,0-1.543-1.4A1.509,1.509,0,0,0,216.542,49.668Z"/></g></g></svg>